<?xml version="1.0" encoding="UTF-8"?>
<svg width="120px" height="120px" viewBox="0 0 120 120" version="1.1" xmlns="http://www.w3.org/2000/svg" xmlns:xlink="http://www.w3.org/1999/xlink">
    <title>画板</title>
    <g id="画板" stroke="none" stroke-width="1" fill="none" fill-rule="evenodd">
        <path d="M72.6014976,99.3399246 C76.5015188,99.9304631 78.9560606,100.788801 78.9560606,101.744164 C78.9560606,103.525302 70.4244946,104.9692 59.9002745,104.9692 C49.3760544,104.9692 40.8444883,103.525302 40.8444883,101.744164 C40.8444883,100.952362 42.530528,100.227205 45.3281417,99.6659196 C49.4693889,101.015367 53.8907873,101.744164 58.4824055,101.744164 C63.4071404,101.744164 68.1360611,100.905784 72.5342288,99.3639628 L72.6014976,99.3399246 Z" id="形状结合" fill="#A1A7B3" fill-rule="nonzero" opacity="0.15"></path>
        <path d="M58.482406,16.8201522 C78.8678236,16.8201522 95.8980472,31.1854457 100.002297,50.3452536 C97.2878388,52.7271977 94.2256347,55.1647264 90.8778591,57.6126278 L90.8778591,57.6126278 L90.0082379,58.2440977 C89.4243233,58.6651917 88.8321276,59.0864745 88.2319698,59.5077108 L88.2319698,59.5077108 L87.3258015,60.1395008 L85.9446791,61.0866684 C85.6348969,61.2970443 85.3232239,61.507335 85.0096999,61.717511 L85.0096999,61.717511 L84.0636151,62.3476657 C83.2706502,62.8724589 82.4663661,63.3963516 81.6513861,63.9188837 L81.6513861,63.9188837 L80.6683158,64.5452399 L79.6752166,65.1701134 C78.4326484,65.9470948 77.1673184,66.7202183 75.8813045,67.4879504 L75.8813045,67.4879504 L75.8810914,69.7247916 C85.5557913,64.016502 93.9512958,58.0850255 100.4115,52.5377986 C100.762284,54.7339834 100.944412,56.9868018 100.944412,59.2821583 C100.944412,82.7332767 81.9335244,101.744164 58.482406,101.744164 C47.230765,101.744164 37.0012635,97.3678651 29.4031978,90.2245631 C35.126923,88.6693135 41.5421539,86.431744 48.34963,83.5826614 L48.34963,83.5826614 L50.0544184,82.8598728 C54.2061025,81.0771504 58.4919622,79.0732635 62.846187,76.8636546 L62.846187,76.8636546 L62.8800005,76.8461005 L62.8800842,74.6873936 C61.700411,75.2924337 60.5228631,75.8836944 59.3489842,76.4606271 L59.3489842,76.4606271 L58.2527997,76.9957333 C56.0627548,78.0575328 53.887215,79.0686558 51.7362675,80.0255162 L51.7362675,80.0255162 L50.6628899,80.4994078 L49.5938912,80.9641561 C48.7049613,81.3476089 47.8208847,81.7214336 46.9423911,82.0853707 L46.9423911,82.0853707 L45.8909252,82.5173325 L44.8450992,82.9397027 L43.8051933,83.3523815 L43.2875479,83.5550556 L42.2570473,83.9530107 C41.5722227,84.2150117 40.8918118,84.4703858 40.2161882,84.7190002 L40.2161882,84.7190002 L39.2063899,85.0868353 C35.2073921,86.528585 31.3852035,87.7276929 27.8190003,88.6560097 C20.5108524,81.0282423 16.0203999,70.679601 16.0203999,59.2821583 C16.0203999,35.8310399 35.0312876,16.8201522 58.482406,16.8201522 Z" id="path-1" fill="#A1A7B3" fill-rule="nonzero" opacity="0.300000012"></path>
        <path d="M58.482406,16.8201522 C65.3545213,16.8201522 71.8453433,18.4526633 77.588215,21.3510289 C77.4354678,30.2097769 70.207417,37.3434551 61.3132064,37.3434551 C52.323611,37.3434551 45.0361041,30.0559481 45.0361041,21.0663528 C45.0361041,20.3487698 45.0825388,19.6420323 45.1725674,18.948981 C49.3592998,17.5672134 53.8336101,16.8201522 58.482406,16.8201522 Z" id="路径" fill="#A1A7B3" fill-rule="nonzero" opacity="0.200000003"></path>
        <path d="M24.158951,65.6514592 C30.2171566,65.6514592 35.1283026,70.5626052 35.1283026,76.6208108 C35.1283026,81.8430103 31.4790684,86.2128854 26.5915483,87.3194878 C21.910988,81.9986018 18.5410007,75.4989127 16.9849398,68.3231306 C18.9076498,66.6584488 21.4157029,65.6514592 24.158951,65.6514592 Z" id="路径" fill="#A1A7B3" fill-rule="nonzero" opacity="0.200000003"></path>
        <path d="M94.5905917,67.2410081 C96.5224615,67.2410081 98.3376896,67.7404104 99.9142195,68.6171584 C98.2573982,76.0054182 94.674869,82.6649925 89.7215858,88.0424552 C86.1057157,86.2479496 83.6212401,82.5192948 83.6212401,78.2103597 C83.6212401,72.1521541 88.532386,67.2410081 94.5905917,67.2410081 Z" id="路径" fill="#A1A7B3" fill-rule="nonzero" opacity="0.200000003"></path>
        <circle id="椭圆形" fill="#A1A7B3" fill-rule="nonzero" opacity="0.200000003" cx="51.79464" cy="91.6935929" r="4.45851064"></circle>
        <circle id="椭圆形备份-13" fill="#A1A7B3" fill-rule="nonzero" opacity="0.200000003" cx="81.8365093" cy="48.6666568" r="6.36930091"></circle>
        <circle id="椭圆形备份-16" fill="#A1A7B3" fill-rule="nonzero" opacity="0.200000003" cx="43.8587484" cy="51.2143771" r="4.60005066"></circle>
        <path d="M16.6895719,69.2653231 C16.8563126,70.0488198 17.0401303,70.7424733 17.2279926,71.3673573 C16.9593678,71.6089095 16.6960902,71.8498498 16.4366144,72.0900782 L15.7176032,72.7633754 L15.0235038,73.4286841 L14.5746427,73.8676326 L14.1369014,74.3028016 L13.7102989,74.7340996 L13.2948543,75.161435 L12.8905869,75.5847163 L12.4975157,76.0038517 L12.1156598,76.4187497 L11.7450384,76.8293187 L11.3856705,77.2354671 L11.0375753,77.6371033 L10.5366106,78.230897 L10.2167807,78.620852 L9.90829046,79.0059742 L9.61115889,79.3861721 C9.36828735,79.7009264 9.1372677,80.0104557 8.91814974,80.3145215 L8.66092418,80.6767628 C8.32558234,81.1562138 8.02075979,81.6214339 7.74666043,82.0714462 L7.54684969,82.4060887 C5.9944996,85.0601726 5.55001988,87.1579807 6.25745609,88.4884747 C6.9648923,89.8189687 8.95260394,90.6235577 12.0210024,90.8207461 L12.4101663,90.8422252 C12.9365178,90.8666302 13.4926574,90.8740686 14.0776611,90.8641632 L14.5218115,90.8534763 C14.8964227,90.8418508 15.2822186,90.8234134 15.6789738,90.7980721 L16.160326,90.7643428 L16.6521124,90.7239504 L17.4091666,90.6507911 L17.9266595,90.5935862 L18.4542834,90.5295943 L18.9919516,90.4587801 L19.8170977,90.3396897 L20.9516393,90.1566944 L21.5334353,90.0547422 L22.1247992,89.9457732 L23.0295954,89.7690857 L23.7996772,89.6096391 L24.5842014,89.4390214 L25.5444561,89.2194371 C29.7420682,88.234447 34.3435032,86.8400408 39.2063894,85.0868354 L40.2161877,84.7190002 C40.8918113,84.4703858 41.5722223,84.2150117 42.2570469,83.9530107 L43.2875474,83.5550556 L43.8051928,83.3523815 L44.8450988,82.9397027 L45.8909248,82.5173325 L46.9423906,82.0853707 C47.8208843,81.7214336 48.7049609,81.3476089 49.5938908,80.9641561 L50.6628895,80.4994079 L51.7362671,80.0255162 C53.8872145,79.0686558 56.0627543,78.0575328 58.2527993,76.9957333 L59.3489838,76.4606271 C60.5228626,75.8836945 61.7004105,75.2924337 62.8800838,74.6873936 L62.8800838,76.8461006 L62.8461865,76.8636546 C58.4919618,79.0732635 54.2061021,81.0771504 50.054418,82.8598728 L48.3496296,83.5826614 C26.0079565,92.9331565 7.89118591,95.6969967 4.54303829,89.4000468 C3.18391221,86.8439024 4.42344172,83.1051139 7.73003844,78.6758374 L8.17301247,78.0942303 C8.24878066,77.9966566 8.3255148,77.8987668 8.40320944,77.8005658 L8.88085944,77.2076663 C9.1254037,76.9093901 9.37849406,76.6084046 9.63998309,76.3048463 L10.1741156,75.6943398 C10.2649895,75.5920304 10.3567857,75.4894453 10.4494987,75.3865895 L11.0167343,74.7662468 L11.605711,74.13965 C11.705671,74.0347095 11.8065259,73.9295185 11.9082703,73.8240822 L12.5293671,73.1885593 L13.1715495,72.5473892 L13.8345555,71.9008144 C13.9467773,71.792615 14.0598557,71.6842006 14.1737854,71.5755761 L14.8675352,70.9213495 C14.9848481,70.8119051 15.1030014,70.7022609 15.2219895,70.5924218 L15.9458932,69.9310894 L16.6895719,69.2653231 Z M113.837173,31.2873246 C117.638799,38.437143 101.108992,54.8397649 75.881091,69.7247916 L75.881091,67.4879504 C77.167318,66.7202183 78.432648,65.9470948 79.6752162,65.1701135 L80.6683154,64.5452399 L81.6513856,63.9188838 C82.4663657,63.3963516 83.2706497,62.872459 84.0636146,62.3476658 L85.0096995,61.7175111 C85.3232235,61.507335 85.6348965,61.2970443 85.9446787,61.0866684 L87.3258011,60.1395008 L88.2319694,59.5077108 C88.8321271,59.0864746 89.4243228,58.6651917 90.0082374,58.2440977 L90.8778586,57.6126279 C95.0506233,54.5614925 98.7797282,51.526472 101.943597,48.5972933 L102.662608,47.9239961 L103.356707,47.2586874 L103.805568,46.8197389 L104.458005,46.1684313 L105.085357,45.5259364 L105.489624,45.1026552 L106.264552,44.2686218 L106.635173,43.8580528 L106.994541,43.4519044 L107.342636,43.0502682 L107.843601,42.4564745 L108.163431,42.0665195 L108.471921,41.6813973 L108.769052,41.3011994 C109.011924,40.9864451 109.242944,40.6769158 109.462062,40.3728499 L109.719287,40.0106087 C110.054629,39.5311577 110.359452,39.0659376 110.633551,38.6159253 L110.833362,38.2812828 C112.385712,35.6271989 112.830191,33.5293908 112.122755,32.1988968 C111.415319,30.8684028 109.427607,30.0638137 106.359209,29.8666254 L105.970045,29.8451463 C105.443693,29.8207413 104.887554,29.8133028 104.30255,29.8232082 L103.8584,29.8338952 C103.483789,29.8455207 103.097993,29.8639581 102.701237,29.8892994 L102.219885,29.9230286 L101.728099,29.963421 L100.971045,30.0365804 L100.453552,30.0937853 L99.9259279,30.1577772 L99.3882596,30.2285914 L98.8406336,30.3062632 L98.2831365,30.390828 L97.4285719,30.5306771 L96.846776,30.6326293 C96.6512445,30.6677809 96.4541184,30.7041019 96.2554121,30.7415983 L95.3506159,30.9182858 L94.4247792,31.1109601 L93.7960099,31.2483501 L92.8357552,31.4679344 C92.4495422,31.5585612 92.0599106,31.6526538 91.6669714,31.7501729 C91.217367,31.1825246 90.7447379,30.6387768 90.2436707,30.1255992 L91.2159006,29.8791485 C91.376717,29.8392365 91.5369175,29.7999072 91.6964948,29.7611624 L92.6464223,29.5357205 C92.9605332,29.46292 93.2720929,29.3924711 93.5810429,29.3243874 L94.5,29.1272455 L95.4029597,28.9443774 C95.5520985,28.9150934 95.7005556,28.8864076 95.8483238,28.8583217 L96.7266066,28.6970186 L97.5880032,28.5501952 C97.7301426,28.5269358 97.8715639,28.5042832 98.0122596,28.4822391 L98.847669,28.3572898 C98.9854334,28.3376865 99.1224576,28.318695 99.2587343,28.3003172 L100.067367,28.1974274 C100.333882,28.1655944 100.597349,28.1362297 100.85771,28.109347 L101.629411,28.0361583 C101.756455,28.0252058 101.882708,28.0148771 102.008162,28.0051742 L102.751245,27.9544777 L103.474809,27.918879 L104.178504,27.8984606 C109.149617,27.806721 112.562939,28.8908399 113.837173,31.2873246 Z" id="形状结合" fill="#A1A7B3" fill-rule="nonzero" opacity="0.600000024"></path>
        <circle id="椭圆形备份-16" fill="#A1A7B3" fill-rule="nonzero" opacity="0.200000003" cx="113.280911" cy="53.6205575" r="3.53850051"></circle>
        <circle id="椭圆形备份-17" fill="#A1A7B3" fill-rule="nonzero" opacity="0.200000003" cx="89.5890418" cy="24.2124014" r="1.91079027"></circle>
        <circle id="椭圆形备份-18" fill="#A1A7B3" fill-rule="nonzero" opacity="0.2" cx="8.37080467" cy="63.882209" r="1.76925025"></circle>
        <path d="M7.48460098,23.4748789 L9.32375679,30.3387019 C9.51825975,31.0645968 9.08748144,31.8107267 8.36158649,32.0052297 C7.63569154,32.1997327 6.88956161,31.7689544 6.69505865,31.0430594 L4.85590284,24.1792365 C4.66139987,23.4533415 5.09217819,22.7072116 5.81807314,22.5127086 C6.54396808,22.3182057 7.29009801,22.748984 7.48460098,23.4748789 Z M25.7484912,22.5127086 C26.4743862,22.7072116 26.9051645,23.4533415 26.7106615,24.1792365 L24.8715057,31.0430594 C24.6770027,31.7689544 23.9308728,32.1997327 23.2049779,32.0052297 C22.4790829,31.8107267 22.0483046,31.0645968 22.2428076,30.3387019 L24.0819634,23.4748789 C24.2764663,22.748984 25.0225963,22.3182057 25.7484912,22.5127086 Z M16.1612583,21.5893263 C16.9127601,21.5893263 17.5219726,22.1985389 17.5219726,22.9500406 L17.5219726,30.055993 C17.5219726,30.8074947 16.9127601,31.4167073 16.1612583,31.4167073 C15.4097566,31.4167073 14.8005441,30.8074947 14.8005441,30.055993 L14.8005441,22.9500406 C14.8005441,22.1985389 15.4097566,21.5893263 16.1612583,21.5893263 Z" id="形状结合" fill="#A1A7B3" fill-rule="nonzero" opacity="0.2" transform="translate(15.783282, 26.820629) rotate(-51.000000) translate(-15.783282, -26.820629) "></path>
        <path d="M68.1822605,58.4736939 C68.6889999,58.5525339 69.0472993,58.9989638 69.0279201,59.4992707 L69.0166393,59.6155397 L67.4661259,69.5820002 L72.0007246,67.7338394 L70.3739105,82.2567883 C70.3124298,82.8056404 69.8176574,83.200733 69.2688053,83.1392523 C68.759157,83.0821631 68.382087,82.6514704 68.3800449,82.1507924 L68.3863413,82.0341472 L69.6381259,70.8560002 L64.9461291,72.7689576 L67.0404146,59.3080727 C67.1192547,58.8013333 67.5656845,58.4430338 68.0659914,58.4624131 L68.1822605,58.4736939 Z" id="路径-13" fill="#A1A7B3" fill-rule="nonzero" opacity="0.600000024"></path>
    </g>
</svg>